<svg width="35" height="35" viewBox="0 0 35 35" fill="none" xmlns="http://www.w3.org/2000/svg">
<path d="M13.1249 31.1111C14.4673 31.1111 15.5554 30.0229 15.5554 28.6806C15.5554 27.3382 14.4673 26.25 13.1249 26.25C11.7825 26.25 10.6943 27.3382 10.6943 28.6806C10.6943 30.0229 11.7825 31.1111 13.1249 31.1111Z" fill="black"/>
<path d="M25.7638 31.1111C27.1062 31.1111 28.1944 30.0229 28.1944 28.6806C28.1944 27.3382 27.1062 26.25 25.7638 26.25C24.4214 26.25 23.3333 27.3382 23.3333 28.6806C23.3333 30.0229 24.4214 31.1111 25.7638 31.1111Z" fill="black"/>
<path d="M32.1806 6.21243C32.09 6.09478 31.9737 5.99943 31.8406 5.93371C31.7075 5.86798 31.561 5.83362 31.4126 5.83326H8.95422L8.51672 4.44299C8.46867 4.29371 8.38521 4.15827 8.27348 4.04823C8.16174 3.93819 8.02505 3.85682 7.87506 3.81104L3.88895 2.58604C3.76638 2.54838 3.63759 2.53522 3.50994 2.54733C3.38229 2.55944 3.25828 2.59657 3.14498 2.65661C2.91616 2.77785 2.74487 2.98503 2.66881 3.23257C2.59274 3.4801 2.61812 3.74772 2.73937 3.97654C2.86062 4.20536 3.0678 4.37664 3.31533 4.45271L6.80561 5.52215L11.2584 19.5902L9.67367 20.893L9.54728 21.0194C9.15537 21.4732 8.93334 22.0491 8.91915 22.6485C8.90496 23.2479 9.09951 23.8337 9.4695 24.3055C9.73449 24.6277 10.0712 24.8835 10.4527 25.0523C10.8343 25.2211 11.25 25.2983 11.6667 25.2777H27.8931C28.151 25.2777 28.3982 25.1753 28.5806 24.993C28.7629 24.8106 28.8653 24.5633 28.8653 24.3055C28.8653 24.0476 28.7629 23.8004 28.5806 23.618C28.3982 23.4357 28.151 23.3333 27.8931 23.3333H11.5112C11.3992 23.3294 11.2901 23.2968 11.1945 23.2385C11.0988 23.1802 11.0198 23.0983 10.9651 23.0005C10.9103 22.9028 10.8817 22.7926 10.882 22.6806C10.8823 22.5685 10.9115 22.4585 10.9667 22.361L13.3098 20.4166H28.3112C28.5333 20.4231 28.7509 20.3533 28.9278 20.2188C29.1047 20.0844 29.2302 19.8934 29.2834 19.6777L32.3945 7.03882C32.4241 6.89388 32.4202 6.7441 32.3831 6.6009C32.346 6.45769 32.2768 6.32483 32.1806 6.21243Z" fill="black"/>
</svg>
