<svg xmlns="http://www.w3.org/2000/svg" width="16" height="18" fill="none" viewBox="0 0 16 18"><path fill="#000" d="M15.7812 15.4178L12.6656 11.9906C12.525 11.8359 12.3344 11.75 12.1344 11.75H11.625C12.4875 10.5366 13 9.01032 13 7.35001C13 3.40032 10.0906 0.200012 6.5 0.200012C2.90937 0.200012 0 3.40032 0 7.35001C0 11.2997 2.90937 14.5 6.5 14.5C8.00937 14.5 9.39688 13.9363 10.5 12.9875V13.5478C10.5 13.7678 10.5781 13.9775 10.7188 14.1322L13.8344 17.5594C14.1281 17.8825 14.6031 17.8825 14.8938 17.5594L15.7781 16.5866C16.0719 16.2635 16.0719 15.741 15.7812 15.4178ZM6.5 11.75C4.29063 11.75 2.5 9.78376 2.5 7.35001C2.5 4.9197 4.2875 2.95001 6.5 2.95001C8.70938 2.95001 10.5 4.91626 10.5 7.35001C10.5 9.78032 8.7125 11.75 6.5 11.75Z"/></svg>